# xmcd CD database file
#
# Track frame offsets:
#	150
#	35063
#	56324
#	84378
#	99323
#	125962
#	151801
#	175953
#	214883
#	238680
#	266811
#	283033
#	299830
#
# Disc length: 4423 seconds
#
# Revision: 0
# Processed by: cddbd v1.5.2PL0 Copyright (c) Steve Scherf et al.
# Submitted via: CDex 1.51
#
DISCID=c711450d
DTITLE=Various Asrtists - Velocity- A Jazz Yorkshire Compilation
DYEAR=2008
DGENRE=Jazz
TTITLE0=01 The Jamil Sheriff Octet- The Happy Ending
TTITLE1=02 The Inertia Field- Apology to a friend
TTITLE2=03 Rob Lavers Quartet - Blue Orchids
TTITLE3=04 Sonic Stories - Truth is a river
TTITLE4=05 Joel Purnell Quartet - Untill Tomorrow
TTITLE5=06 Laura Fowles - I look at a girl
TTITLE6=07 Metropolis - The sombre sombrero
TTITLE7=08 Ken Marley 7 Piece Jazz Ensamble - Part 1
TTITLE8=09 Rossie Brown - I sing the body electric
TTITLE9=10 Sara Littlefield Band - Back Home
TTITLE10=11 Matthew Bourne - Kate
TTITLE11=12 Nicola Farnon - Beautiful dreams
TTITLE12=13 Minghe Morte - Propeller cage fights
EXTD=YEAR: 2008
EXTT0=
EXTT1=
EXTT2=
EXTT3=
EXTT4=
EXTT5=
EXTT6=
EXTT7=
EXTT8=
EXTT9=
EXTT10=
EXTT11=
EXTT12=
PLAYORDER=
